Coordinates
version=1
nRows=5
nColumns=107
inDegrees=yes

Units are S.I. units (second, meters, Newtons, ...)
If the header above contains a line with 'inDegrees', this indicates whether rotational values are in degrees (yes) or radians (no).

endheader
time	sternoclavicular_r2	sternoclavicular_r3	unrotscap_r3	unrotscap_r2	acromioclavicular_r2	acromioclavicular_r3	acromioclavicular_r1	unrothum_r1	unrothum_r3	unrothum_r2	elv_angle	shoulder_elv	shoulder1_r2	shoulder_rot	elbow_flexion	pro_sup	deviation	flexion	proximal_distal_r1	proximal_distal_r3	cmc_flexion	cmc_abduction	mp_flexion	ip_flexion	mcp2_flexion	mcp2_abduction	pm2_flexion	md2_flexion	mcp3_flexion	mcp3_abduction	pm3_flexion	md3_flexion	mcp4_flexion	mcp4_abduction	pm4_flexion	md4_flexion	mcp5_flexion	mcp5_abduction	pm5_flexion	md5_flexion	bicpt_tx	bicpt_ty	bicpt_tz	bicpt2_tx	bicpt2_ty	bicpt2_tz	ptpt_tx	ptpt_ty	ptpt_tz	FCUpt_tx	FCUpt_ty	FCUpt_tz	EDCpt_tx	EDCpt_ty	EDCpt_tz	APLpt_tx	APLpt_ty	APLpt_tz	FPLpt_tx	FPLpt_ty	FPLpt_tz	FPLpt2_tx	FPLpt2_ty	FPLpt2_tz	PEC1pt2_tx	PEC1pt2_ty	PEC1pt2_tz	PEC1pt3_tx	PEC1pt3_ty	PEC1pt3_tz	PEC2pt2_tx	PEC2pt2_ty	PEC2pt2_tz	PEC2pt3_tx	PEC2pt3_ty	PEC2pt3_tz	PEC3pt2_tx	PEC3pt2_ty	PEC3pt2_tz	PEC3pt3_tx	PEC3pt3_ty	PEC3pt3_tz	DELT2pt2a_tx	DELT2pt2a_ty	DELT2pt2a_tz	DELT2pt2_tx	DELT2pt2_ty	DELT2pt2_tz	LAT1pt2_tx	LAT1pt2_ty	LAT1pt2_tz	LAT1pt3_tx	LAT1pt3_ty	LAT1pt3_tz	LAT2pt2_tx	LAT2pt2_ty	LAT2pt2_tz	LAT2pt3_tx	LAT2pt3_ty	LAT2pt3_tz	LAT3pt2_tx	LAT3pt2_ty	LAT3pt2_tz	LAT3pt3_tx	LAT3pt3_ty	LAT3pt3_tz
      1.16666667	     -0.32574766	      0.13797134	     -0.13797134	      0.32574766	     -0.06595728	      0.53304350	      0.23959938	     -0.23959938	     -0.53304350	      0.06595728	     97.38217511	     77.12365456	     -1.69963959	    -18.43219366	     29.86990675	     35.59471677	      0.25330856	     -1.09735019	      0.29125606	     -0.54867510	     13.07856996	      1.81322588	    -32.05743264	    -40.80939847	     74.31860503	     14.00781487	     85.49546993	     93.64371566	     83.57785977	      6.90336231	     84.36229084	     61.27611478	     87.31622638	    -12.44269469	     90.43492333	     44.91759654	     95.29446175	    -14.21702868	     80.45204899	      5.68332026	      0.00088800	     -0.03102355	     -0.00485144	      0.01654398	     -0.01831431	     -0.00792670	      0.00491995	     -0.06660063	     -0.00291735	      0.00733971	     -0.18358395	     -0.00034784	     -0.00427136	      0.00120404	      0.00017279	      0.00011430	      0.00004572	      0.00022860	      0.00014631	      0.00043892	      0.00024689	      0.00002775	     -0.00023194	     -0.00027833	      0.00252794	      0.00886923	      0.00616990	     -0.00826938	      0.01996647	     -0.01893816	      0.00252794	      0.00886923	      0.00616990	      0.00055700	      0.01850969	     -0.00972616	      0.00398399	      0.00493206	      0.01605509	      0.00000000	      0.00795613	      0.00000000	     -0.00724106	     -0.03346313	     -0.00656117	      0.01285512	     -0.00038428	     -0.00277357	     -0.00089978	      0.01508197	     -0.00616990	      0.00248510	      0.02176603	     -0.01799553	     -0.00604136	      0.01306819	     -0.00552720	     -0.01259687	      0.02759315	     -0.03089233	     -0.02365127	      0.01461066	     -0.00741245	     -0.01568182	      0.03187780	     -0.03860471
      1.20000000	     -0.32566254	      0.13793528	     -0.13793528	      0.32566254	     -0.06594004	      0.53290421	      0.23953677	     -0.23953677	     -0.53290421	      0.06594004	     97.42701171	     77.10350093	     -1.70042213	    -18.54579784	     29.88039145	     35.93562897	      0.26170430	     -1.09516317	      0.29911082	     -0.54758158	     14.19753550	      1.43537770	    -30.91239141	    -39.56469074	     71.91946268	     13.98068714	     84.80227161	     93.03331053	     81.82757638	      6.98975772	     83.67865191	     60.80429222	     85.71954305	    -12.35328690	     88.87889406	     44.32216059	     92.78941740	    -14.18131068	     80.27794575	      5.71881315	      0.00088835	     -0.03102475	     -0.00485164	      0.01654792	     -0.01831715	     -0.00789233	      0.00489476	     -0.06661692	     -0.00294481	      0.00737359	     -0.18357727	     -0.00035135	     -0.00431227	      0.00121746	      0.00017112	      0.00011610	      0.00004644	      0.00023220	      0.00014861	      0.00044582	      0.00025077	      0.00002550	     -0.00024299	     -0.00029158	      0.00252728	      0.00886691	      0.00616829	     -0.00826722	      0.01996126	     -0.01893321	      0.00252728	      0.00886691	      0.00616829	      0.00055686	      0.01850486	     -0.00972362	      0.00398323	      0.00493078	      0.01605327	      0.00000000	      0.00795194	      0.00000000	     -0.00723917	     -0.03345438	     -0.00655769	      0.01292301	     -0.00038770	     -0.00281020	     -0.00089954	      0.01507803	     -0.00616829	      0.00248445	      0.02176034	     -0.01799083	     -0.00603978	      0.01306477	     -0.00552576	     -0.01259358	      0.02758594	     -0.03088426	     -0.02364509	      0.01460684	     -0.00741051	     -0.01567773	      0.03186947	     -0.03859462
      1.23333333	     -0.32568407	      0.13794440	     -0.13794440	      0.32568407	     -0.06594440	      0.53293944	      0.23955261	     -0.23955261	     -0.53293944	      0.06594440	     97.41091150	     77.10859923	     -1.70014113	    -18.41576113	     29.92215066	     36.01976872	      0.27128945	     -1.07966098	      0.30793752	     -0.53983049	     15.16747707	      0.29268515	    -29.05990356	    -36.49587980	     68.11546210	     13.92049759	     83.93092007	     91.25745270	     78.90254598	      7.24076438	     82.85690851	     59.21260676	     82.52076031	    -12.17006447	     87.20996915	     43.29382811	     88.76175538	    -14.15544689	     79.49141269	      5.67575694	      0.00088973	     -0.03102954	     -0.00485241	      0.01654885	     -0.01832850	     -0.00788382	      0.00488855	     -0.06662094	     -0.00295159	      0.00738196	     -0.18357561	     -0.00035220	     -0.00432236	      0.00122078	      0.00017070	      0.00012846	      0.00005138	      0.00025691	      0.00016442	      0.00049327	      0.00027746	      0.00002340	     -0.00025138	     -0.00030166	      0.00252745	      0.00886750	      0.00616869	     -0.00826776	      0.01996258	     -0.01893446	      0.00252745	      0.00886750	      0.00616869	      0.00055690	      0.01850608	     -0.00972426	      0.00398342	      0.00493110	      0.01605373	      0.00000000	      0.00795300	      0.00000000	     -0.00723965	     -0.03345659	     -0.00655857	      0.01284528	     -0.00038379	     -0.00276829	     -0.00089960	      0.01507903	     -0.00616869	      0.00248461	      0.02176178	     -0.01799202	     -0.00604018	      0.01306563	     -0.00552612	     -0.01259442	      0.02758777	     -0.03088630	     -0.02364666	      0.01460781	     -0.00741100	     -0.01567876	      0.03187158	     -0.03859717
      1.26666667	     -0.32414007	      0.13729044	     -0.13729044	      0.32414007	     -0.06563177	      0.53041289	      0.23841694	     -0.23841694	     -0.53041289	      0.06563177	     97.75253609	     76.74304322	     -1.70610361	    -19.95920739	     29.91834906	     37.61768571	      0.27801628	     -1.04472766	      0.31404331	     -0.52236383	     17.11062153	     -1.28566597	    -28.16137148	    -33.29267413	     63.23939605	     13.86021249	     82.33844656	     89.28548286	     74.43653570	      7.55638216	     81.56237017	     56.36289064	     78.07525090	    -11.83566108	     85.03564574	     41.95740099	     83.56923455	    -14.14845590	     77.95048170	      5.61663555	      0.00088961	     -0.03102910	     -0.00485234	      0.01656347	     -0.01832747	     -0.00772037	      0.00477048	     -0.06669729	     -0.00308031	      0.00754126	     -0.18354382	     -0.00036737	     -0.00451411	      0.00128421	      0.00016199	      0.00015486	      0.00006195	      0.00030973	      0.00019822	      0.00059467	      0.00033450	      0.00001890	     -0.00026514	     -0.00031817	      0.00251547	      0.00882546	      0.00613945	     -0.00822857	      0.01986794	     -0.01884470	      0.00251547	      0.00882546	      0.00613945	      0.00055426	      0.01841835	     -0.00967816	      0.00396969	      0.00490772	      0.01602056	      0.00000000	      0.00787723	      0.00000000	     -0.00720533	     -0.03329798	     -0.00649568	      0.01375283	     -0.00043068	     -0.00328389	     -0.00089534	      0.01500754	     -0.00613945	      0.00247283	      0.02165861	     -0.01790673	     -0.00601154	      0.01300369	     -0.00549992	     -0.01253471	      0.02745698	     -0.03073988	     -0.02353455	      0.01453856	     -0.00737587	     -0.01560443	      0.03172048	     -0.03841419
      1.30000000	     -0.32356248	      0.13704579	     -0.13704579	      0.32356248	     -0.06551482	      0.52946773	      0.23799210	     -0.23799210	     -0.52946773	      0.06551482	     98.03806813	     76.60629225	     -1.71108708	    -20.71769251	     29.63129562	     37.98293778	      0.27431887	     -1.03714779	      0.31069604	     -0.51857389	     19.72350020	     -2.89767838	    -27.11425174	    -32.00304196	     58.35589243	     13.80423184	     78.94122378	     87.84717717	     69.93857941	      7.73619973	     79.23905835	     55.37104017	     73.36224158	    -11.45929571	     82.06788192	     40.99791500	     78.10907987	    -14.14926449	     74.90549164	      5.59065862	      0.00088011	     -0.03099620	     -0.00484704	      0.01656598	     -0.01824949	     -0.00768250	      0.00474349	     -0.06671474	     -0.00310973	      0.00757779	     -0.18353645	     -0.00037057	     -0.00455794	      0.00129882	      0.00015980	      0.00016032	      0.00006413	      0.00032065	      0.00020521	      0.00061564	      0.00034630	      0.00001251	     -0.00027697	     -0.00033236	      0.00251099	      0.00880973	      0.00612851	     -0.00821390	      0.01983253	     -0.01881112	      0.00251099	      0.00880973	      0.00612851	      0.00055327	      0.01838553	     -0.00966091	      0.00396454	      0.00489898	      0.01600807	      0.00000000	      0.00784898	      0.00000000	     -0.00719249	     -0.03323865	     -0.00647223	      0.01418696	     -0.00045408	     -0.00355137	     -0.00089374	      0.01498080	     -0.00612851	      0.00246843	      0.02162002	     -0.01787482	     -0.00600083	      0.01298052	     -0.00549012	     -0.01251237	      0.02740805	     -0.03068510	     -0.02349262	      0.01451265	     -0.00736272	     -0.01557663	      0.03166396	     -0.03834574
